<svg xmlns="http://www.w3.org/2000/svg" width="346" height="346"><path d="M161.5.884c-1.1.377-3.125 1.195-4.5 1.819-4.144 1.88-6.442 2.621-7.589 2.448-.599-.091-1.906.738-2.905 1.842C144.546 9.16 143 9.603 143 8c0-.55.787-1.032 1.75-1.07 1.481-.06 1.443-.191-.25-.854-2.448-.959-6.243 1.488-7.079 4.564-.321 1.177-1.671 3.086-3.002 4.243-1.33 1.157-2.419 2.557-2.419 3.11 0 .554-.523.894-1.161.757-.639-.138-1.452.875-1.807 2.25l-.644 2.5-2.944-3.145c-1.619-1.73-3.836-4.293-4.927-5.696-2.863-3.683-5.888-4.847-8.167-3.142-1.74 1.301-1.716 1.35.4.817 1.669-.421 2.25-.131 2.25 1.121 0 1.164-.699 1.605-2.25 1.419-1.237-.147-4.725 1.167-7.75 2.92-3.025 1.754-7.075 3.479-9 3.834-2.126.392-5.303 2.316-8.093 4.901-2.526 2.342-5.933 4.95-7.571 5.797-2.89 1.495-9.855 9.064-13.963 15.174-3.942 5.864-7.214 19.173-7.745 31.5-.273 6.325-1.257 15.057-2.187 19.405-1.596 7.454-1.593 8.469.045 17.795 1.524 8.675 1.577 10.875.435 17.908-1.072 6.601-1.07 8.847.009 12.705 2.874 10.276 3.101 13.794 1.979 30.687-2.747 41.345-2.291 53.146 2.609 67.554 5.463 16.061 13.469 23.806 20.109 19.454 1.401-.917 2.657-1.519 2.791-1.338.135.182 1.053 3.03 2.042 6.33.988 3.3 2.189 6.427 2.669 6.95.479.522.871 1.621.871 2.441 0 3.376 10.087 21.883 14.436 26.487 2.51 2.658 4.564 5.151 4.564 5.54 0 1.298 15.606 14.26 20.086 16.684 14.019 7.585 17.037 8.576 28.914 9.49 6.325.487 15.935 1.341 21.356 1.897 15.67 1.607 18.996 1.364 25.423-1.857 3.146-1.578 9.039-3.908 13.094-5.178 4.055-1.271 9.005-3.444 11-4.83 1.995-1.386 6.327-4.366 9.627-6.621 10.617-7.256 24.518-23.398 29.594-34.364 3.504-7.571 6.899-17.312 6.921-19.857.009-.98.467-2.457 1.019-3.282.874-1.308 1.134-1.276 2.034.25 2.032 3.447 6.58 2.158 14.041-3.98 6.95-5.717 10.891-10.829 10.891-14.127 0-.959.404-2.171.898-2.693.845-.895 1.137-2.359 2.681-13.45.344-2.475 1.03-4.927 1.523-5.45.494-.522.898-2.183.898-3.691s.45-3.019 1-3.359c.55-.34 1-3.265 1-6.5s.45-6.16 1-6.5c.55-.34 1-1.716 1-3.059 0-1.343-.45-2.441-1-2.441-1.439 0-1.234-2.739.25-3.338 1-.403 1-.52 0-.583-.801-.051-1.25-1.676-1.25-4.52 0-2.443-.45-4.719-1-5.059-.55-.34-1-1.512-1-2.606 0-1.172-1.244-2.686-3.034-3.691-2.305-1.294-2.886-2.184-2.419-3.703 3.144-10.222 3.582-13.815 3.406-28-.414-33.336-.44-33.705-2.876-40.5-1.281-3.575-2.666-6.95-3.078-7.5-.411-.55-1.007-2.35-1.323-4-.317-1.65-1.025-5.391-1.575-8.313-.55-2.922-2.11-7.298-3.465-9.723-1.356-2.426-2.751-5.713-3.101-7.305C290.933 66.418 278.739 53 276.85 53c-.468 0-.85-.675-.85-1.5s-.359-1.5-.799-1.5c-.439 0-4.377-3.383-8.75-7.518S256.25 33.437 253.5 31.571c-2.75-1.866-7.313-5.637-10.141-8.38-2.827-2.743-6.09-5.288-7.25-5.656-1.16-.369-2.109-1.033-2.109-1.477 0-.445-1.298-1.068-2.885-1.385-1.586-.317-4.574-1.724-6.639-3.125C222.411 10.147 220.334 9 219.86 9c-.473 0-1.804-.944-2.958-2.098-1.354-1.354-2.938-1.937-4.47-1.644-1.304.249-2.162.114-1.906-.3C212.14 2.346 167.951-1.325 161.5.884M117 16.441c0 .857-.691 1.559-1.535 1.559-1.225 0-1.319.404-.465 2 1.319 2.465 3.23 2.633 2.838.25-.159-.962.046-2.281.453-2.931.408-.649.284-1.463-.275-1.809-.559-.345-1.016.074-1.016.931m2.564 4.852c.376.986.935 1.541 1.243 1.233.308-.307.001-1.114-.683-1.793-.988-.98-1.102-.865-.56.56m116.575 3.621c1.299 1.053 2.553 1.723 2.788 1.49.514-.511-3.067-3.327-4.288-3.372-.473-.018.202.829 1.5 1.882m7.288 4.864c1.61 1.761 3.126 3.002 3.369 2.759.481-.481-1.164-2.202-4.3-4.499-1.098-.804-.679-.021.931 1.74" fill="undefined" fill-rule="evenodd"/></svg>