<svg xmlns="http://www.w3.org/2000/svg" width="346" height="346"><path d="M161.5.884c-1.1.377-3.125 1.195-4.5 1.819-4.144 1.88-6.442 2.621-7.589 2.448-.599-.091-1.906.738-2.905 1.842C144.546 9.16 143 9.603 143 8c0-.55.787-1.032 1.75-1.07 1.481-.06 1.443-.191-.25-.854-2.448-.959-6.243 1.488-7.079 4.564-.321 1.177-1.671 3.086-3.002 4.243-1.33 1.157-2.419 2.557-2.419 3.11 0 .554-.523.894-1.161.757-.639-.138-1.452.875-1.807 2.25l-.644 2.5-2.944-3.172c-1.619-1.745-3.844-4.26-4.944-5.589-3.336-4.029-5.378-4.685-9.413-3.024-1.973.812-4.638 2.446-5.922 3.631-1.284 1.185-3.163 2.019-4.175 1.854-4.131-.674-29.877 14.846-38.524 23.223-3.367 3.261-4.347 5.025-4.897 8.815-.378 2.606-1.365 5.415-2.192 6.242-.828.828-1.207 1.986-.843 2.575.364.589.003 1.83-.803 2.758-.857.987-1.521 3.97-1.6 7.187-.074 3.025-.392 6.727-.707 8.226-.315 1.499-.219 3.297.213 3.996 1.46 2.362 1.257 13.605-.256 14.185-.759.292-1.374 1.557-1.366 2.812.01 1.466.293 1.845.791 1.061.426-.671.65 3.29.496 8.802-.163 5.877.099 9.788.636 9.456 1.132-.699 2.043 11.338 2.646 34.962.253 9.9.512 19.821.575 22.046.071 2.513-.88 6.111-2.511 9.5-2.029 4.216-2.628 4.887-2.642 2.954l-.018-2.5-1.48 2.837c-1.207 2.313-1.252 3.274-.244 5.197.68 1.298 1.686 2.378 2.236 2.4 1.381.056 1.574 3.216.765 12.566-.629 7.261-.742 7.584-1.229 3.5-.295-2.475-.199-4.65.214-4.833 1.754-.78.649-2.953-1.25-2.457-1.412.37-2 .031-2-1.152 0-1.042.473-1.415 1.25-.986.688.38.125-.425-1.25-1.79-1.994-1.979-2.613-2.183-3.056-1.009-.471 1.246-.828 1.2-2.324-.296-1.256-1.256-1.433-1.975-.61-2.483.822-.508.729-.88-.32-1.283-1.133-.434-1.442.19-1.325 2.676.134 2.847-.12 3.191-2.076 2.817-2.479-.474-4.927-2.899-3.932-3.895.354-.353.643-.117.643.524 0 2.17 1.845 1.184 3.321-1.774 1.335-2.677 1.302-3.09-.364-4.598-1.007-.911-2.304-1.364-2.883-1.007-.606.375-.829.072-.527-.715.556-1.449-1.887-4.024-4.797-5.056-.962-.341-1.75-.217-1.75.275s.788 1.101 1.75 1.353c.962.251.232.509-1.622.573-2.914.1-3.201-.091-2.108-1.408 1.717-2.069.446-3.1-1.688-1.369-1.472 1.195-1.594 1.191-.86-.027.65-1.079.436-1.259-.89-.75-.96.369-2.167.67-2.683.67-.515 0-.643 1.173-.283 2.607.378 1.507.195 2.892-.433 3.28-1.626 1.005.826 5.225 3.632 6.25 2.072.758 2.244.612 1.637-1.395-.372-1.233-1.076-2.669-1.564-3.192-1.204-1.288-1.119-2.55.171-2.55.582 0 .8.419.483.932-.316.512.256 1.524 1.272 2.25 2.344 1.673 3.243 5.134 2.241 8.628-.924 3.219.71 5.23 4.153 5.111 1.507-.052 1.784-.278.81-.661-2.09-.82-4.402-3.26-3.089-3.26.589 0 1.071-.675 1.071-1.5 0-1.994 1.901-1.922 2.677.101.338.88-.014 1.999-.781 2.485-1.061.672-.882.887.747.899 2.987.021 3.859 2.771 1.052 3.317l-2.195.426 2.25.136c1.538.093 2.25.769 2.25 2.136 0 1.1.477 2 1.059 2s.781.45.441 1-.141 1 .441 1S38 211.325 38 210.5s.337-1.55.75-1.612a234.65 234.65 0 014.22-.505c3.309-.376 3.389-.313 1.714 1.361-1.515 1.515-1.881 1.554-2.666.285-.5-.809-1.241-1.139-1.647-.733-1.063 1.063.727 2.477 3.629 2.868 1.686.227 2.408-.101 2.219-1.008-.155-.739.295-1.151 1-.916 1.187.395 1.899 2.847.781 2.69-.275-.039-1.792.421-3.372 1.021-2.083.792-3.236.789-4.202-.012-.731-.607-2.139-.94-3.128-.738-1.367.278-1.019.715 1.452 1.826 1.878.844 3.25 2.202 3.25 3.217 0 1.206.783 1.756 2.5 1.756 1.375 0 2.5-.477 2.5-1.059s-.399-.812-.887-.511c-.487.301-1.409-.082-2.048-.852-.849-1.023-.862-1.586-.047-2.089.613-.379 1.381-.423 1.707-.098.325.325 1.119.153 1.765-.383.776-.644 1.7-.556 2.726.259 1.683 1.336 6.304 18.937 7.238 27.562.317 2.932 1.252 6.637 2.078 8.234 1.39 2.687 1.351 3.054-.515 4.92-2.714 2.714-3.411 2.547-1.506-.36 1.273-1.943 1.34-2.857.363-5C56.691 248.026 55 247.071 55 249c0 .55-.675 1-1.5 1-2.168 0-1.845-1.677.439-2.274 1.666-.435 1.886-1.224 1.56-5.598-.334-4.489-2.389-10.632-2.469-7.378-.016.688-.44 1.25-.942 1.25-1.312 0-.68-3.016.828-3.948 2.04-1.261-.882-10.447-3.447-10.834-1.85-.28-1.863-.213-.219 1.102 1.794 1.435 2.339 4.758 1 6.097-.413.412-.806 1.162-.875 1.666-.069.504-.181 1.353-.25 1.886-.069.532-.819.702-1.668.376-1.366-.524-1.348-.808.155-2.469.934-1.032 1.348-1.876.921-1.876-.428 0-.251-.635.393-1.411.801-.965.839-1.616.123-2.059-1.52-.939-3.277.435-2.649 2.071.398 1.036-.381 1.399-3.003 1.399-3.827 0-6.972 2.26-5.795 4.165.401.65-.357.419-1.686-.511-1.329-.931-2.416-2.246-2.416-2.923s-1.48-1.456-3.289-1.731c-1.809-.275-3.298-.95-3.309-1.5-.01-.55-.663-.938-1.45-.863-.787.075-1.172-.28-.857-.791.315-.51 1.382-.671 2.371-.357 2.186.694 3.366-1.724 1.706-3.496-.927-.989-.606-1.118 1.53-.615l2.702.636-1.466-3.507c-.94-2.252-1.081-3.507-.392-3.507.589 0 .775-.48.413-1.067-.363-.586.173-1.697 1.191-2.468 1.786-1.353 1.78-1.407-.15-1.552-1.1-.082-2.393-.078-2.873.009-.48.088-.606-.534-.281-1.381.806-2.102-1.314-1.952-2.954.209-1.208 1.591-1.331 1.5-1.36-1-.018-1.512-.434-2.75-.926-2.75-1.362 0-.783-4.909.644-5.457 2.649-1.018 1.058-2.113-3.171-2.183-3.503-.058-4.521.312-4.906 1.783-.644 2.461-2.725 2.372-3.383-.143-.631-2.411-1.85-2.589-2.692-.394-.439 1.143-1.334 1.426-3.107.981-1.434-.36-2.491-.193-2.491.394 0 .56-.675 1.019-1.5 1.019s-1.5.724-1.5 1.609c0 1.251.781 1.519 3.5 1.201 1.925-.225 3.5-.049 3.5.391 0 .439-.562.806-1.25.814-.833.011-.75.339.25.985.825.533 1.05 1.011.5 1.061-.55.051-1.756.238-2.681.417-1.1.213-1.495-.159-1.143-1.077.296-.77.04-1.401-.569-1.401S3 203.915 3 205.032c0 2.634 3.91 4.201 5.79 2.321.744-.744 1.996-1.353 2.781-1.353.786 0 1.429-.398 1.429-.885s1.138-1.63 2.528-2.542c2.825-1.85 5.258-1.225 3.495.899-.799.963-.62 1.469.701 1.978 1.691.652 1.692.732.018 1.671-.967.543-2.204.711-2.75.374-.546-.337-.992-.073-.992.588 0 2.192-6.054 7.136-8.088 6.604-1.05-.274-2.132-.14-2.403.298-.689 1.115 6.14 1.791 7.935.786.81-.453 1.236-1.441.946-2.196-.71-1.853 1.496-3.089 2.939-1.646.872.872.79 1.384-.337 2.097-.821.519-1.02.95-.442.959.577.008 1.617-.548 2.309-1.235 1.009-1.002 1.138-.929.645.364-.458 1.206.159 1.769 2.441 2.225 1.777.355 3.055 1.238 3.055 2.111 0 1.149-.737 1.353-3.15.87s-3.494-.184-4.619 1.275c-1.377 1.786-1.429 1.734-.831-.845.534-2.303.31-2.75-1.381-2.75-1.11 0-2.019.466-2.019 1.035 0 .714-.601.714-1.934 0-2.841-1.52-5.066-1.262-5.066.587 0 1.259.306 1.369 1.367.488 1.038-.861 1.658-.784 2.573.318.664.799 1.848 1.207 2.633.906.972-.374 1.427.161 1.427 1.676 0 1.766.432 2.11 2.099 1.674 1.154-.301 1.833-.283 1.509.042-.325.324-.106 1.174.487 1.888 1.952 2.353-.138 3.717-2.239 1.461-1.064-1.141-2.352-2.075-2.864-2.075-.511 0-.67-.675-.354-1.5.317-.825.19-1.533-.281-1.574-.471-.041-1.908-.269-3.193-.507-1.578-.292-2.186-.025-1.875.824.254.691 1.006 1.132 1.672.978.666-.153 1.457.66 1.757 1.807.317 1.214 1.103 1.871 1.881 1.572.736-.282 1.583-.115 1.883.372.681 1.101-3.093 2.386-4.484 1.527-.56-.346-.047 1.987 1.14 5.186 1.187 3.198 2.545 5.966 3.017 6.15.471.185.575.792.231 1.35-.418.676-.003.693 1.243.05 2.005-1.034 4.371-.611 4.371.782 0 .468-1.103.993-2.452 1.167l-2.451.316 1.87 4c1.126 2.407 1.903 3.27 1.952 2.167.103-2.334 2.461-1.621 2.948.891.201 1.041 1.101 2.499 2 3.241 1.459 1.206 1.393 1.298-.617.869-2.738-.585-2.74-.549-.246 4.339 1.449 2.841 2.449 3.756 3.615 3.309 1.28-.491 1.471-.176.929 1.533-.457 1.439.014 3.132 1.42 5.106 1.792 2.516 2.986 3.054 8.068 3.629 4.217.477 5.964 1.097 5.964 2.117 0 .883-.872 1.371-2.25 1.26-1.237-.1-3.375-.118-4.75-.038l-2.5.144 2.25 1.877c1.238 1.032 2.25 2.399 2.25 3.038 0 .707.614.547 1.571-.411 1.696-1.695 2.465-1.879 6.679-1.602 2.443.162 2.75-.161 2.75-2.894 0-1.691.45-3.075 1-3.075 1.834 0 1.029-2.18-1-2.71-2.348-.614-2.691-2.29-.469-2.29.843 0 1.78.646 2.082 1.435 1.026 2.673 13.444 4.091 19.137 2.184 1.399-.469 2.25-.35 2.25.314 0 .587-.602 1.067-1.338 1.067-.837 0-1.387 1.309-1.47 3.5-.092 2.472.301 3.5 1.338 3.5 2.806 0 1.596 3.761-1.564 4.862-2.066.72-2.83.727-2.394.021.689-1.114-2.808-4.883-4.53-4.883-1.538 0-1.266 2.634.449 4.348 1.139 1.14 1.198 1.63.25 2.081-.683.324.447.388 2.509.143l3.75-.446v3.937c0 2.165-.413 3.937-.918 3.937-2.279 0-4.082-1.372-4.082-3.107 0-1.041-.675-1.893-1.5-1.893s-1.5.645-1.5 1.433c0 1.873-3.312 2.877-6.896 2.09-3.902-.857-4.687 1.581-1.479 4.594 2.108 1.98 2.629 2.109 3.472.857.793-1.177.933-1.052.698.622-.162 1.153.323 2.841 1.078 3.75 1.699 2.048 6.127 2.207 6.127.221 0-2.025 3.519-2.895 6.109-1.509 1.967 1.053 2.129.959 1.631-.945-.38-1.452-.087-2.113.937-2.113.819 0 1.3.562 1.069 1.25-.232.688.293 1.814 1.166 2.502 1.419 1.119 1.4 1.187-.175.639-2.192-.764-5.016 1.439-4.285 3.344.298.777-.167 2.123-1.033 2.989-1.434 1.434-1.322 1.784 1.253 3.89 1.555 1.273 3.567 2.33 4.471 2.35.904.02 1.902.711 2.219 1.536.316.825 1.789 1.5 3.273 1.5 1.484 0 2.402.296 2.04.658-1.041 1.041 1.373 3.342 3.506 3.342 1.066 0 1.654-.457 1.309-1.016-.346-.559-1.005-.784-1.466-.499-1.371.847.072-3.32 1.584-4.575.766-.635 1.392-1.775 1.392-2.532 0-.758.9-1.378 2-1.378 2.739 0 2.722 3.999-.021 4.716-1.588.415-1.776.824-.878 1.906.88 1.06.818 1.378-.266 1.378-1.591 0-2.211 3.65-.771 4.539.515.319.936-.149.936-1.039 0-.89.409-1.365.91-1.056.5.309 1.596.299 2.435-.023 1.193-.458 1.461-1.981 1.229-7.003-.163-3.53.048-6.418.468-6.418.421 0 .921 4.238 1.111 9.418.191 5.181.622 9.693.959 10.029 1.669 1.665 21.684 9.065 31.388 11.606C220.35 364.1 313.064 311.306 339.33 220c2.856-9.927 5.67-25.566 5.67-31.51 0-2.286.334-4.491.743-4.899 1.016-1.017 1.084-22.602.069-21.975-.447.276-.812-1.158-.812-3.188 0-10.13-8.004-44.751-11.069-47.878-.512-.523-.931-1.561-.931-2.307s-2.102-5.62-4.672-10.831c-3.243-6.576-4.941-9.082-5.554-8.193-.616.895-.774.678-.525-.719.544-3.059-13.434-24.45-15.999-24.484-.687-.009-1.25-.691-1.25-1.516 0-3.607-4.82.667-7.331 6.5-.828 1.925-1.574 2.825-1.658 2-.107-1.064-.371-.94-.906.427-.634 1.618-1.131 1.137-3.099-3-1.289-2.71-4.002-7.04-6.028-9.624-2.927-3.73-3.951-4.45-4.979-3.5-1.023.947-1.178.866-.741-.388.593-1.701-6.239-8.894-8.495-8.942-1.414-.03-8.763-6.561-8.763-7.787 0-.433-2.101-2.114-4.67-3.737-2.568-1.622-6.176-4.411-8.018-6.199-1.841-1.788-3.79-3.25-4.33-3.25s-.982-.702-.982-1.559-.448-1.282-.996-.944c-.547.339-1.52-.535-2.16-1.941-.641-1.406-1.683-2.556-2.316-2.556-.633 0-2.189-.967-3.457-2.149-1.347-1.254-3.528-2.114-5.241-2.065-1.614.046-4.548-1.012-6.522-2.351C222.335 10.096 220.334 9 219.86 9c-.473 0-1.804-.944-2.958-2.098-1.354-1.354-2.938-1.937-4.47-1.644-1.304.249-2.162.114-1.906-.3C212.14 2.346 167.951-1.325 161.5.884m-49.833 11.783C110.399 13.934 111.008 15 113 15c1.111 0 2-.667 2-1.5 0-1.522-2.115-2.051-3.333-.833M117 16.441c0 .857-.691 1.559-1.535 1.559-1.225 0-1.319.404-.465 2 1.319 2.465 3.23 2.633 2.838.25-.159-.962.046-2.281.453-2.931.408-.649.284-1.463-.275-1.809-.559-.345-1.016.074-1.016.931m2.564 4.852c.376.986.935 1.541 1.243 1.233.308-.307.001-1.114-.683-1.793-.988-.98-1.102-.865-.56.56m116.575 3.621c1.299 1.053 2.553 1.723 2.788 1.49.514-.511-3.067-3.327-4.288-3.372-.473-.018.202.829 1.5 1.882m7.288 4.864c1.61 1.761 3.126 3.002 3.369 2.759.481-.481-1.164-2.202-4.3-4.499-1.098-.804-.679-.021.931 1.74M305 70.826c0 .646.45 1.174 1 1.174s.929.338.841.75c-.268 1.269 1.321 4.25 2.266 4.25 1.727 0 .866-2.676-1.607-5-1.375-1.292-2.5-1.82-2.5-1.174m-8.985 5.365c.009.72.452 1.984.985 2.809.788 1.219.972 1.09.985-.691.008-1.205-.435-2.469-.985-2.809-.55-.34-.993-.029-.985.691M299 76.5c0 .825.45 1.5 1 1.5s1-.675 1-1.5-.45-1.5-1-1.5-1 .675-1 1.5m4 1.418c0 .505-.273 1.63-.607 2.5-.37.964-.077 1.582.75 1.581.746 0 1.422-1.125 1.501-2.5.08-1.374-.258-2.499-.75-2.499a.909.909 0 00-.894.918m12.543 2.013c-.317.512-.118 1.213.441 1.559.559.345 1.016-.074 1.016-.931 0-1.757-.6-2.015-1.457-.628m-8.572 2.604c-.691.832-.967 1.802-.614 2.156.354.353.643.15.643-.451s.788-1.249 1.75-1.44c1.146-.227 1.358-.594.613-1.062-.625-.394-1.701-.035-2.392.797M307.5 93c.34.55.816 1 1.059 1s.441-.45.441-1-.477-1-1.059-1-.781.45-.441 1m-5.485 4.75c.009.412.452 1.425.985 2.25.784 1.213.972 1.069.985-.75.008-1.237-.435-2.25-.985-2.25s-.993.338-.985.75M307.5 101c.34.55.816 1 1.059 1s.441-.45.441-1-.477-1-1.059-1-.781.45-.441 1m-2.911 4.666c.944 3.998 2.164 5.012 1.627 1.353-.246-1.674-.863-3.301-1.371-3.615-.54-.333-.646.609-.256 2.262M1.079 160.75c.048 1.056.28 1.252.585.494.279-.691.918-1.002 1.421-.691.503.311.915.088.915-.494S3.325 159 2.5 159s-1.464.787-1.421 1.75M7 165.418c0 .78-.275 2.135-.611 3.012-.414 1.078-.172 1.424.75 1.07 1.504-.579 2.18-5.5.755-5.5-.492 0-.894.638-.894 1.418m-4.75 2.078C.509 169.473.68 170 3.059 170c1.132 0 1.781-.45 1.441-1-.34-.55-.141-1 .441-1S6 167.55 6 167c0-1.457-2.298-1.153-3.75.496m-.68 4.391c-.681 1.101 1.868 3.342 2.772 2.438.362-.362.658-1.258.658-1.992 0-1.489-2.578-1.825-3.43-.446m14.255 1.439c-.373 1.825-.233 2.482.393 1.856.533-.533.793-1.805.576-2.826-.291-1.375-.543-1.123-.969.97M4.5 176c-.782 1.266.542 1.266 2.5 0 1.293-.835 1.266-.971-.191-.985-.93-.008-1.969.435-2.309.985m13 1c.34.55 1.068 1 1.618 1s.722-.45.382-1c-.34-.55-1.068-1-1.618-1s-.722.45-.382 1m3.5-.607c0 .216.698.661 1.552.989.89.341 1.291.173.941-.393-.587-.951-2.493-1.406-2.493-.596M2 179c1 .646 1.083.974.25.985-.789.009-1.25 1.49-1.25 4.015 0 2.889.417 4 1.5 4 .825 0 1.567-.9 1.65-2 .082-1.1.195-2.562.25-3.25.055-.687-.575-1.105-1.4-.929-1.203.258-1.252.07-.25-.95 1.749-1.778 1.557-2.874-.5-2.856-1.496.013-1.532.157-.25.985m8 4c0 .55.477 1 1.059 1s.781-.45.441-1-.816-1-1.059-1-.441.45-.441 1m-2.921 4.583c.048 1.165.285 1.402.604.605.289-.722.253-1.585-.079-1.917-.332-.332-.568.258-.525 1.312m19.723-1.051c-1.096 1.095.267 7.015 1.891 8.218 2.066 1.529 3.307 1.6 3.307.191 0-.582-.384-.822-.854-.531-.469.29-1.344-.549-1.944-1.865-.851-1.869-.774-2.656.354-3.592.794-.659 1.444-1.593 1.444-2.075 0-.947-3.324-1.221-4.198-.346M1 191.941c0 3.417 1.913 4.074 4.12 1.415 1.212-1.462 1.116-1.566-.872-.935-1.722.547-2.106.373-1.674-.754.31-.806.082-1.762-.506-2.125-.668-.413-1.068.484-1.068 2.399m10-2c0 .518.457 1.224 1.016 1.569.559.346.758 1.047.441 1.559-.316.512.052.931.817.931 2.376 0 2.802-1.258 1.073-3.169-1.794-1.982-3.347-2.395-3.347-.89m-5 .452c0 .216.675.652 1.5.969.825.316 1.5.139 1.5-.393 0-.533-.675-.969-1.5-.969s-1.5.177-1.5.393m28.459.674c-.363.586-.445 1.281-.183 1.543s.743-.218 1.069-1.067c.676-1.762.1-2.072-.886-.476M3.5 196c-.731 1.183.248 1.183 3 0 1.928-.829 1.921-.862-.191-.93-1.205-.038-2.469.38-2.809.93m7.005 4.992c-.337.546-.221 1.693.258 2.549.726 1.297 1.065 1.131 2.033-.992.948-2.08.9-2.549-.258-2.549-.781 0-1.696.446-2.033.992M42.232 202c.687 1.1 1.591 2 2.009 2 .417 0 .759-.9.759-2 0-1.336-.667-2-2.008-2-1.759 0-1.853.249-.76 2m-4.186 2.914c-.774 1.447-.789 2.086-.05 2.086 1.213 0 2.533-2.805 1.709-3.629-.299-.298-1.045.396-1.659 1.543m-27.432 3.649c-.33.86-1.053 1.284-1.607.941-.554-.342-1.007-.194-1.007.33 0 1.836 2.587 1.919 4.768.153 1.861-1.507 1.959-1.878.636-2.386-2.118-.812-2.108-.815-2.79.962m-6.155 1.504c-.363.586-.419 1.306-.126 1.6.717.716 2.667-.546 2.667-1.726 0-1.278-1.726-1.193-2.541.126m23.976.828c.923 1.493-2.434 2.174-4.757.966-1.198-.623-1.844-.775-1.437-.338.408.436.312 1.311-.213 1.943-.665.802.075 1.617 2.444 2.691 1.87.847 3.766 1.271 4.214.942 1.163-.855 1.296-7.099.151-7.099-.525 0-.706.403-.402.895m5.565 6.12c-.944.62-1.128 1.263-.496 1.735.552.412 1.142 1.953 1.311 3.422.244 2.119-.171 2.764-2.004 3.114-2.093.4-2.056.454.389.578 1.485.075 3.111.869 3.612 1.764.707 1.265 1.088 1.343 1.702.349.48-.776.141-1.756-.861-2.489-.909-.665-1.639-1.834-1.623-2.598.021-.954.354-.835 1.062.381.567.974 1.453 1.51 1.969 1.191.517-.319.939-.152.939.372 0 2.266 3.106 2.027 4.177-.322.613-1.347 1.569-2.169 2.124-1.826.573.354.7.124.293-.534-.524-.847-1.258-.867-2.74-.074-2.331 1.248-3.105.747-3.572-2.31-.523-3.429-3.359-4.672-6.282-2.753m15.015-.324c.009.445.452 1.484.985 2.309.835 1.293.971 1.266.985-.191.008-.93-.435-1.969-.985-2.309-.55-.34-.993-.254-.985.191m-18.285 5.384c.579 2.214 2.27 2.61 2.27.532 0-.766-.624-1.632-1.387-1.925-.973-.374-1.236.042-.883 1.393m-9.73.807c0 1.1.45 2.278 1 2.618.55.34 1-.282 1-1.382 0-1.1-.45-2.278-1-2.618-.55-.34-1 .282-1 1.382m2.5 6.49c-2.965 1.268-2.974 1.296-.816 2.455 1.202.645 2.889 1.173 3.75 1.173.861 0 1.566.45 1.566 1s.45 1 1 1 1-.675 1-1.5c0-1.002-1.079-1.539-3.25-1.616-1.788-.064-2.501-.314-1.585-.557 1.63-.432 3.469-3.371 2.054-3.282-.396.025-2.069.622-3.719 1.327m17 .628c-.34.55.084 1 .941 1S43 230.55 43 230s-.423-1-.941-1-1.219.45-1.559 1M18 232.883c0 .486.9 1.119 2 1.407 1.3.34 2 .03 2-.884 0-.773-.9-1.406-2-1.406s-2 .398-2 .883m15.882 1.808a6.206 6.206 0 00.013 1.6c.073.434-.34 1.672-.917 2.75-.871 1.628-.725 1.959.864 1.959 1.052 0 2.473.675 3.158 1.5s1.977 1.448 2.872 1.384c1.374-.098 1.354-.187-.122-.573-1.06-.277-1.75-1.414-1.75-2.884 0-1.335-.45-2.427-1-2.427s-1-.648-1-1.441c0-1.537-1.919-3.23-2.118-1.868m-20.85.948c.045 1.221 2.861 4.802 3.372 4.288.233-.235-.437-1.489-1.49-2.788-1.053-1.298-1.9-1.973-1.882-1.5m10.302.788c.301.785-.112 1.974-.919 2.643-1.281 1.063-1.256 1.448.193 3.05.913 1.008 2.099 1.561 2.637 1.228.538-.332 1.354.003 1.812.745.459.742 1.129 1.055 1.489.695 1.038-1.038-.492-2.788-2.438-2.788-.976 0-1.775-.678-1.775-1.506s.571-1.39 1.268-1.25c1.413.285 1.628-.484.765-2.734-.319-.83-1.255-1.51-2.08-1.51-.888 0-1.277.582-.952 1.427m16.107 2.28c.307.801.559 1.645.559 1.875 0 .23.75.418 1.667.418.916 0 1.37-.296 1.008-.658-.362-.362-.203-1.206.352-1.875.749-.902.344-1.217-1.567-1.217-1.847 0-2.419.413-2.019 1.457M50 240.213c0 1.106 2.76.984 3.463-.152.319-.517-.329-.871-1.441-.788-1.112.084-2.022.507-2.022.94m-4 3.846c0 .582.45.781 1 .441s1-.816 1-1.059-.45-.441-1-.441-1 .477-1 1.059m-14.562.841c.398.644-.07 1.106-1.129 1.115-1.552.013-1.596.166-.309 1.076 1.129.799 1.191 1.187.25 1.568-1.458.592-1.639 5.178-.289 7.312.512.809 1.279 1.122 1.706.696.426-.427.192-1.136-.52-1.576-1.026-.634-.954-1.142.351-2.446 1.204-1.204 1.29-1.649.323-1.66-1.053-.013-1.041-.193.057-.889.758-.48 1.09-1.339.738-1.909-.352-.569.153-1.202 1.122-1.405 1.505-.316 1.416-.56-.609-1.676-1.417-.78-2.097-.863-1.691-.206M48 246c0 .55.702 1 1.559 1s1.281-.45.941-1c-.34-.55-1.041-1-1.559-1s-.941.45-.941 1m-13.5 3c.34.55 1.068 1 1.618 1s.722-.45.382-1c-.34-.55-1.068-1-1.618-1s-.722.45-.382 1m4.264.794c-.345 1.318.155 1.846 1.883 1.989 2.584.214 3.005-.731 1.153-2.583-1.664-1.664-2.488-1.502-3.036.594M46 254.469c0 .894.586 1.243 1.5.893.825-.317 1.5-.978 1.5-1.469 0-.491-.675-.893-1.5-.893s-1.5.661-1.5 1.469m6.732.616c.398 1.519.761 1.736 1.341.797.86-1.392.324-2.882-1.038-2.882-.466 0-.602.938-.303 2.085m-9.375 1.415c.825.825 1.812 1.5 2.194 1.5.382 0 .134-.675-.551-1.5s-1.672-1.5-2.194-1.5-.274.675.551 1.5m-16.582.058c-.995.995.419 4.442 1.823 4.442.75 0 1.646 1.125 1.991 2.5.624 2.484 1.495 3.082 2.715 1.863 1.003-1.003-3.331-6.464-4.538-5.718-.702.433-.883-.089-.517-1.489.53-2.026-.226-2.846-1.474-1.598M60.5 258c-.34.55-.168 1 .382 1s1.278-.45 1.618-1c.34-.55.168-1-.382-1s-1.278.45-1.618 1m-11 1c-.34.55.11 1 1 1s1.34-.45 1-1c-.34-.55-.79-1-1-1-.21 0-.66.45-1 1m14.181 1.844c-.32 1.603-1.283 3.615-2.14 4.472-1.087 1.087-1.219 1.765-.437 2.248.616.381 1.407.288 1.758-.206s1.763-1.385 3.138-1.979c2.052-.886 2.855-.738 4.483.826 1.104 1.06 2.811 1.69 3.847 1.419 2.965-.775 4.951.332 3.573 1.993-.897 1.081-.793 1.383.475 1.383.892 0 1.622-.482 1.622-1.071 0-1.734 2.79-4.078 3.495-2.937.343.555.259 1.015-.186 1.023-.445.009-.134.459.691 1 1.333.876 1.333 1.094 0 1.97-1.271.834-1.221.987.329 1 1.542.013 1.72-.496 1.133-3.235-.988-4.604-1.167-4.742-4.221-3.242-3.397 1.668-7.478.939-10.467-1.87a131.207 131.207 0 00-4.392-3.923c-2.074-1.749-2.13-1.726-2.701 1.129m-29 .267c-.65 2.488 2.667 6.754 3.811 4.901.387-.626-.009-1.926-.88-2.889-1.222-1.35-1.313-2.022-.398-2.937.915-.915.824-1.186-.397-1.186-.871 0-1.832.95-2.136 2.111m6.56-.125c-1.587 2.541-1.59 4.297-.006 3.769.679-.226 1.327-1.614 1.44-3.083.246-3.199.16-3.239-1.434-.686m4.759-.927c0 .582.45.781 1 .441s1-.816 1-1.059-.45-.441-1-.441-1 .477-1 1.059M49 262c-1.09.704-1.142.974-.191.985.72.008 1.031.465.691 1.015-.34.55-.186 1 .343 1 .528 0 1.801 1.328 2.829 2.951 1.384 2.186 2.251 2.715 3.343 2.039 1.252-.773 1.173-1.139-.52-2.419-1.782-1.346-1.808-1.511-.245-1.539.962-.018 1.75-.669 1.75-1.449 0-.779.563-1.617 1.25-1.863.688-.245.888-.832.446-1.304-.443-.472-1.155-.291-1.583.402-.583.942-1.467.998-3.511.221-3.243-1.233-2.76-1.229-4.602-.039m2 2c0 .55.675 1 1.5 1s1.5-.45 1.5-1-.675-1-1.5-1-1.5.45-1.5 1m-20.333 3.667c-.367.366-.667 1.131-.667 1.7 0 .626.466.567 1.183-.15.651-.651.951-1.416.667-1.7-.284-.284-.817-.217-1.183.15M67.5 268c-.34.55.11 1 1 1s1.34-.45 1-1c-.34-.55-.79-1-1-1-.21 0-.66.45-1 1m-6.5 2c0 .55.477 1 1.059 1s.781-.45.441-1-.816-1-1.059-1-.441.45-.441 1m-17.5 1c.34.55 1.068 1 1.618 1s.722-.45.382-1c-.34-.55-1.068-1-1.618-1s-.722.45-.382 1m33 2c-1.63.701-1.688.872-.309.93.93.038 1.969-.38 2.309-.93.711-1.15.676-1.15-2 0m-24.842 1.449c-.372.969-.076 1.265.893.893.797-.306 1.449-.958 1.449-1.449 0-1.438-1.735-1.026-2.342.556m29.259.322c-1.055.738-1.917 2.217-1.917 3.286 0 1.229-.685 1.943-1.863 1.943-1.336 0-1.797.637-1.628 2.25.347 3.307.44 3.396 1.773 1.688.67-.859 2.005-1.857 2.968-2.219 1.005-.377 1.75-1.688 1.75-3.081 0-1.333.661-2.678 1.468-2.987 1.717-.659 3.043.915 1.548 1.839-.559.345-1.016 1.726-1.016 3.069S83.523 283 82.941 283s-.781.45-.441 1 .141 1-.441 1S81 284.55 81 284s-.498-1-1.107-1-.861.642-.559 1.427c.636 1.659-1.629 3.908-2.835 2.814-.45-.407-.521.083-.158 1.091.362 1.007.659 2.245.659 2.75 0 .505.498.918 1.107.918s.886-.576.616-1.281c-.271-.704.581-1.787 1.893-2.406 1.349-.636 2.384-.718 2.384-.188 0 .516-.675 1.197-1.5 1.513-.825.317-1.5 1.203-1.5 1.969S80.675 293 81.5 293s1.5-.498 1.5-1.107.698-.839 1.552-.511c.854.327 1.306.197 1.006-.289-.585-.945 1.916-2.286 2.735-1.466 1.052 1.051-.608 4.466-1.924 3.961-.753-.289-1.369.073-1.369.805 0 .882.848 1.167 2.521.848 2.371-.454 2.46-.322 1.498 2.208-.562 1.479-.748 3.784-.412 5.12.371 1.48.176 2.431-.499 2.431-.609 0-1.108-.675-1.108-1.5s-.48-1.5-1.067-1.5c-.613 0-.797.853-.433 2 .542 1.709.18 2-2.492 2-2.132 0-2.896-.372-2.403-1.17.48-.777.186-.964-.876-.556-.88.337-1.82.076-2.09-.58-.27-.657-.432-.036-.361 1.378.105 2.108.538 2.495 2.391 2.14 2.169-.414 2.238-.222 1.665 4.619-.546 4.603-.432 5.006 1.284 4.54 2.351-.638 5.703-5.043 4.866-6.396-.949-1.536-2.484-.124-2.484 2.284 0 1.645-.273 1.868-1.18.961-1.997-1.997.934-6.22 4.318-6.22 2.077 0 2.651.387 2.224 1.5-.365.95.013 1.5 1.031 1.5 2.03 0 2.063-1.376.074-3.028-2.087-1.732-1.299-3.472 1.571-3.472 2.228 0 2.347-.311 2.097-5.5-.16-3.346-1.375-8.046-3.101-12-1.561-3.575-3.346-7.866-3.968-9.536-1.246-3.343-3.897-3.971-7.149-1.693m-19.838 1.812c.048 1.165.285 1.402.604.605.289-.722.253-1.585-.079-1.917-.332-.332-.568.258-.525 1.312M54 278c0 1.1.45 2 1 2s1-.9 1-2-.45-2-1-2-1 .9-1 2m19 .059c0 .582.45.781 1 .441s1-.816 1-1.059-.45-.441-1-.441-1 .477-1 1.059m13.089 3.604c.099 2.11.007 4.287-.204 4.837-.212.55-.047 1.113.365 1.25s.788-.087.835-.5c.047-.413.58-1.347 1.186-2.076.814-.981.753-1.541-.231-2.149-.732-.453-1.061-1.529-.729-2.392.331-.863.151-1.848-.4-2.188-.613-.379-.932.87-.822 3.218m-43.282 1.861c-.701 6.008 3.069 7.594 7.647 3.218 2.046-1.955 2.045-1.955-1.454-1.36-1.925.327-2.937.337-2.25.023 1.648-.754 1.582-2.216-.179-3.976-2.272-2.273-3.322-1.689-3.764 2.095m10.693-.792c1.1.275 2.331 1.01 2.735 1.634.466.72.74.495.75-.616.011-1.274-.733-1.718-2.735-1.634-2.108.089-2.283.233-.75.616m19.5 3.799c0 1.393-.675 2.791-1.5 3.107-.825.317-1.5 1.428-1.5 2.469 0 2.029.764 2.33 2.734 1.079 1.546-.983 2.688-9.186 1.278-9.186-.557 0-1.012 1.139-1.012 2.531M70 286c0 .55.45 1 1 1s1-.45 1-1-.45-1-1-1-1 .45-1 1m19.776 3.176c.647.647.81 1.66.363 2.25-.447.591-.256 2.14.425 3.443l1.239 2.368 1.138-2.127c.917-1.713.79-2.608-.651-4.587-.985-1.353-2.217-2.474-2.74-2.492-.523-.017-.421.498.226 1.145m-41.109.491c-1.151 1.15-.729 2.333.833 2.333.825 0 1.5-.42 1.5-.934 0-.513 1.237-1.121 2.75-1.35 2.319-.351 2.189-.44-.833-.566-1.971-.083-3.884.15-4.25.517m11.583 6.995c-1.442.582-1.709 3.338-.323 3.338.509 0 1.132.788 1.384 1.75.435 1.667.463 1.667.573 0 .064-.962.566-1.75 1.116-1.75.55 0 1-.637 1-1.417 0-.779.563-1.643 1.25-1.921.688-.277.125-.504-1.25-.504s-3.062.227-3.75.504m16.505 1.838c-.526 2.754.675 3.428 1.638.918.852-2.221.755-3.418-.276-3.418-.486 0-1.099 1.125-1.362 2.5m3.826 1.149c-.345.9-.505 1.69-.355 1.755.151.064 1.288.971 2.527 2.014l2.253 1.897-1.102-3.159c-1.336-3.833-2.482-4.698-3.323-2.507M90.5 300c-.782 1.266.542 1.266 2.5 0 1.293-.835 1.266-.971-.191-.985-.93-.008-1.969.435-2.309.985m-17.453 6.443c-1.145 1.38-1.063 1.832.555 3.056 1.044.791 2.203 1.452 2.575 1.469.372.018.824.797 1.004 1.732.26 1.352.701 1.13 2.153-1.087 1.004-1.533 1.54-3.072 1.192-3.421-.349-.349-1.01-.027-1.469.715-1.01 1.635-2.93.611-3.932-2.097-.669-1.809-.854-1.841-2.078-.367m-9.279.725c.582.582 1.647.86 2.369.62.749-.25.295-.703-1.057-1.057-1.663-.435-2.054-.305-1.312.437m8.807 3.711c-.31.501.109 1.169.931 1.485.822.315 1.494.164 1.494-.336 0-1.356-1.777-2.198-2.425-1.149m19.978 14.036a1.116 1.116 0 00.362 1.532c.521.322 1.21.159 1.532-.362a1.116 1.116 0 00-.362-1.532 1.116 1.116 0 00-1.532.362" fill="undefined" fill-rule="evenodd"/></svg>