<svg xmlns="http://www.w3.org/2000/svg" width="1024" height="1024"><path d="M274 205.781c-5.775.463-13.405 4.129-17.693 8.502-9.065 9.246-18.103 19.579-19.717 22.545-.5.92-1.85 2.826-3 4.236-4.892 6.001-12.16 17.005-13.018 19.709-.389 1.225-1.072 2.227-1.518 2.227-.446 0-1.389 1.462-2.095 3.25-.705 1.788-2.041 4.15-2.969 5.25-.927 1.1-3.178 4.7-5.002 8-1.823 3.3-5.31 9.326-7.748 13.391-2.438 4.065-5.3 9.24-6.361 11.5-1.761 3.751-2.841 5.764-6.625 12.348-.707 1.232-1.241 2.532-1.185 2.889.056.356-.298.924-.787 1.26-1.159.798-25.282 49.4-25.282 50.937 0 .646-.388 1.175-.861 1.175-.474 0-2.312 3.488-4.084 7.75-1.773 4.262-4.103 9.268-5.179 11.124-1.075 1.856-3.104 6.131-4.508 9.5-1.404 3.369-4.761 10.73-7.46 16.357-2.699 5.627-4.908 10.438-4.908 10.691 0 .253-1.742 4.199-3.871 8.769A1033.47 1033.47 0 00122.521 454c-2.055 4.675-5.038 11.314-6.629 14.753-1.591 3.439-2.892 6.707-2.892 7.263 0 1.249-10.896 26.068-12.106 27.576-.482.601-.62 1.349-.305 1.663.314.314-.192 1.736-1.124 3.158-2.192 3.345-5.287 3.337-16.965-.043-6.547-1.895-11.726-2.666-19-2.83-9.618-.217-10.535-.443-24-5.907-7.7-3.125-15.912-5.957-18.25-6.293-4.08-.587-4.25-.506-4.25 2.024 0 1.954-.509 2.636-1.965 2.636-4.711 0-4.977 6.567-2.049 50.5 1.758 26.378 2.423 31.581 7.356 57.546 4.497 23.665 6.827 33.068 13.628 55C72.371 784.865 154.828 886.79 266.964 949.049c30.626 17.004 61.26 30.049 96.036 40.897 25.554 7.972 31.653 9.467 59 14.469 28.249 5.167 32.715 5.715 60.515 7.422 29.118 1.787 30.925 1.788 60.5.013 28.661-1.72 32.31-2.166 60.985-7.466 26.478-4.894 34.066-6.74 57.545-13.998 83.1-25.688 160.888-73.921 217.597-134.923 50.825-54.673 89.007-120.589 111.776-192.963 7.876-25.037 9.405-31.228 14.449-58.5 5.272-28.512 5.761-32.472 7.491-60.75 1.803-29.468 1.803-31.032-.01-60.5-1.732-28.149-2.247-32.334-7.41-60.25-4.574-24.732-6.798-34.039-12.669-53-3.916-12.65-7.543-23.167-8.058-23.371-.516-.204-1.662-1.217-2.547-2.25-.885-1.034-1.913-1.879-2.286-1.879-.372 0-2.93-1.516-5.684-3.37-2.754-1.853-6.37-3.844-8.035-4.425-2.697-.94-3.201-.79-4.616 1.37-1.302 1.987-2.443 2.433-6.316 2.469-2.6.024-6.972.811-9.716 1.75-4.356 1.489-5.442 2.457-8.552 7.617-1.959 3.252-5.065 7.071-6.903 8.489-3.318 2.559-3.337 2.561-2.621.306.396-1.249.894-5.069 1.107-8.488.422-6.791.837-11.039 2.572-26.35 2.158-19.03-.158-32.561-8.416-49.185-5.709-11.493-11.034-15.329-23.333-16.812-10.419-1.256-13.916 4.409-12.173 19.724 1.795 15.783 1.087 63.135-1.173 78.405-.488 3.3-1.151 9.15-1.472 13-.321 3.85-1.556 13.695-2.744 21.877-2.496 17.189-1.132 15.127-17.803 26.913-6.325 4.471-16.577 12.924-22.783 18.784-9.542 9.01-13.478 11.9-25.5 18.722-14.657 8.317-33.626 18.18-34.992 18.195-.426.005-1.212-1.003-1.747-2.241a27.144 27.144 0 00-5.228-7.912c-.963-1.011-1.75-2.319-1.75-2.908 0-.588-1.35-3.032-3-5.43-1.65-2.398-3-4.628-3-4.954 0-.327-1.463-2.776-3.25-5.442-3.809-5.681-6.317-9.828-9.72-16.072-1.359-2.493-2.775-4.757-3.148-5.032-.372-.275-1.848-2.637-3.28-5.25-6.417-11.713-7.521-13.664-9.814-17.343-1.339-2.149-2.753-4.582-3.143-5.407-.39-.825-2.234-3.975-4.098-7-1.865-3.025-5.524-9.325-8.132-14-2.609-4.675-5.063-8.725-5.454-9-.39-.275-1.742-2.975-3.003-6-1.262-3.025-2.846-6.175-3.522-7-1.174-1.433-2.105-3.152-7.854-14.5-1.394-2.75-2.978-5.675-3.521-6.5-.544-.825-2.634-5.1-4.645-9.5-2.012-4.4-4.959-10.786-6.55-14.191-1.591-3.405-3.168-7.567-3.504-9.25-.337-1.682-.969-3.059-1.405-3.059-.436 0-1.99-3.595-3.454-7.99-1.463-4.394-2.994-8.196-3.402-8.448-.408-.252-1.83-4.869-3.161-10.26-1.33-5.391-2.699-10.027-3.043-10.302-.343-.275-1.588-5-2.766-10.5s-3.25-12.25-4.605-15c-1.355-2.75-2.478-5.509-2.495-6.131-.042-1.53-5.349-5.339-12.031-8.635-5.794-2.858-15.66-3.865-24.63-2.515-8.862 1.334-17.424 7.148-20.685 14.045-2.085 4.409-3.565 16.9-3.643 30.736-.035 6.325-.515 13.975-1.066 17-.552 3.025-1.465 9.1-2.031 13.5-.566 4.4-1.435 8.9-1.931 10-.497 1.1-1.197 4.813-1.557 8.25-.359 3.438-.978 6.25-1.375 6.25s-1.283 4.83-1.97 10.733c-.686 5.903-1.613 10.965-2.059 11.25-.447.284-1.148 3.432-1.557 6.994-.41 3.563-1.308 8.073-1.996 10.023-.688 1.95-1.582 6.46-1.987 10.023-.405 3.562-1.096 6.927-1.535 7.477-.44.55-1.321 4.825-1.958 9.5s-1.588 9.4-2.113 10.5c-.526 1.1-1.592 5.6-2.369 10-1.276 7.218-2.426 12.633-5.627 26.5-.572 2.475-1.704 7.875-2.517 12s-1.873 8.4-2.354 9.5c-.482 1.1-1.649 7.063-2.593 13.25-.944 6.188-2.012 11.25-2.372 11.25-.361 0-1.252 3.938-1.98 8.75-.728 4.813-1.67 9.2-2.093 9.75-.423.55-1.353 4.375-2.066 8.5-.714 4.125-1.578 7.725-1.922 8-.625.5-4.014 13.864-4.014 15.828 0 .573-.54 2.309-1.199 3.857-.66 1.548-1.898 6.181-2.75 10.294l-1.551 7.479-4.402.745c-19.338 3.272-65.997 7.177-99.232 8.306l-18.635.633-3.865-6.318a4260.582 4260.582 0 01-5.082-8.321c-.669-1.102-2.115-3.916-3.214-6.253-1.1-2.337-2.416-4.25-2.926-4.25-.51 0-1.202-1.094-1.537-2.43-.336-1.337-1.214-3.034-1.953-3.773-.738-.738-2.124-3.695-3.079-6.57-.954-2.875-2.113-5.227-2.575-5.227-.462 0-1.587-2.25-2.5-5s-1.962-5.002-2.33-5.004c-.369-.002-1.489-2.139-2.49-4.75-1.002-2.61-2.248-5.421-2.771-6.246-.522-.825-1.639-3.075-2.483-5-.843-1.925-2.859-6.255-4.48-9.623-1.62-3.367-2.946-6.689-2.946-7.382 0-.692-.839-2.662-1.865-4.377-1.025-1.715-2.474-5.255-3.218-7.868-.745-2.613-1.657-4.75-2.027-4.75-.371 0-1.483-2.7-2.471-6-.989-3.3-2.148-6-2.577-6-.429 0-.52-.675-.204-1.5.317-.825.19-1.5-.281-1.5-.472 0-1.727-2.812-2.79-6.25-1.064-3.437-2.292-6.735-2.729-7.327-.438-.593-1.721-4.193-2.852-8-1.13-3.808-2.653-8.048-3.384-9.423-.731-1.375-2.334-5.875-3.562-10-1.229-4.125-2.61-7.96-3.07-8.522-.46-.562-1.718-4.203-2.796-8.091-1.077-3.888-2.456-7.928-3.065-8.978-.609-1.05-2.228-5.882-3.598-10.737-1.37-4.856-3.141-10.256-3.935-12-.793-1.745-2.62-6.977-4.058-11.628-1.439-4.652-2.985-8.927-3.436-9.5-.451-.574-2.252-5.531-4.001-11.016-1.75-5.484-3.547-10.209-3.995-10.5-.448-.29-2.742-6.828-5.097-14.528-2.356-7.7-4.916-15.263-5.691-16.806-.774-1.543-1.601-4.018-1.838-5.5-.585-3.665-4.052-17.429-5.48-21.754-.78-2.365-.832-3.914-.159-4.729 1.652-1.997 3.042-11.706 2.855-19.94-.156-6.863-.467-8.02-2.77-10.321-1.426-1.425-3.676-2.781-5-3.012-8.087-1.411-12.824-1.905-15.906-1.657m-23.31 74.969c-.235.413-.971 2.438-1.636 4.5-.665 2.063-1.588 3.75-2.051 3.75-.463 0-1.58 2.221-2.482 4.936-.902 2.715-2.012 5.078-2.468 5.25-.822.311-2.968 4.152-7.16 12.814-1.197 2.475-2.522 4.726-2.944 5.003-.422.277-1.532 2.414-2.467 4.75-.934 2.336-1.996 4.247-2.358 4.247-.362 0-1.759 2.813-3.104 6.25-1.344 3.438-2.782 6.491-3.194 6.785-.411.294-1.491 2.319-2.4 4.5-.908 2.181-1.968 4.19-2.357 4.465-.388.275-3.212 5.675-6.276 12-8.454 17.45-17.875 37.122-18.886 39.435-.496 1.136-1.307 2.74-1.803 3.565-.495.825-1.706 3.525-2.69 6s-2.313 5.175-2.954 6c-.64.825-2.596 5.1-4.346 9.5-1.749 4.4-3.616 8.781-4.147 9.736-.532.955-.967 2.418-.967 3.25 0 .833-.406 1.514-.902 1.514s-1.365 1.238-1.929 2.75l-3.455 9.252c-1.335 3.576-3.427 8.526-4.65 11-2.472 5.003-10.064 23.963-10.064 25.132 0 .411 1.238.102 2.75-.687s3.511-1.437 4.441-1.441c.93-.003 1.969-.456 2.309-1.006.34-.55 1.491-1 2.559-1s1.941-.45 1.941-1 1.178-1 2.619-1c2.573 0 14.209-3.379 17.617-5.115.955-.487 2.841-.885 4.191-.885 1.35 0 2.733-.45 3.073-1 .34-.55 1.69-1 3-1s2.66-.45 3-1c.34-.55 1.915-1 3.5-1s3.16-.45 3.5-1c.34-.55 1.536-1 2.658-1 1.122 0 3.458-.629 5.191-1.399 1.733-.769 5.626-2.18 8.651-3.136 3.025-.956 6.4-2.078 7.5-2.493 4.143-1.562 12.792-3.973 14.365-4.004.899-.017 2.509-.692 3.576-1.5 1.068-.807 2.954-1.468 4.191-1.468 1.238 0 2.502-.408 2.81-.906.308-.499 2.809-1.216 5.558-1.594 2.749-.378 5.25-1.095 5.558-1.594.308-.498 1.883-.906 3.501-.906 1.618 0 2.941-.392 2.941-.871s2.328-1.18 5.173-1.558c2.845-.377 6.025-1.142 7.066-1.699 1.042-.558 4.227-1.454 7.078-1.993 11.317-2.139 10.723-1.858 10.041-4.741-.343-1.451-1.22-4.109-1.948-5.906-.728-1.798-1.304-3.547-1.281-3.888.023-.341-.367-.896-.866-1.232-.499-.337-1.707-3.537-2.684-7.112-.977-3.575-2.378-7.85-3.113-9.5-.736-1.65-2.314-6.375-3.506-10.5-1.193-4.125-2.537-7.954-2.987-8.509-.449-.555-2.255-6.405-4.011-13-1.757-6.595-3.518-12.216-3.914-12.491-.396-.275-1.47-3.425-2.388-7a630.113 630.113 0 00-3.669-13.5c-1.101-3.85-2.554-9.025-3.23-11.5-.675-2.475-1.502-4.725-1.837-5-.334-.275-2.512-7.25-4.838-15.5-9.04-32.061-10.732-36.667-12.396-33.75M640 324.514c0 .832-.442 2.295-.982 3.25-1.007 1.781-3.215 9.495-5.505 19.236-.712 3.025-1.732 6.625-2.267 8-.535 1.375-1.302 4.75-1.703 7.5-.402 2.75-1.086 5.45-1.52 6-.435.55-1.329 4.375-1.988 8.5s-1.57 8.214-2.023 9.087c-.454.873-1.337 5.148-1.963 9.5-.625 4.352-1.55 8.813-2.056 9.913-.506 1.1-1.591 6.275-2.411 11.5-2.441 15.547-4.503 27.096-6.073 34-.813 3.575-1.772 9.875-2.131 14-.36 4.125-1.04 8.538-1.513 9.808-.473 1.269-1.536 8.095-2.362 15.168-.827 7.073-1.733 13.46-2.013 14.192-.633 1.65-3.419 29.212-2.998 29.648.502.517 30.592-6.667 47.427-11.324 22.7-6.279 46.811-14.423 68.687-23.2 15.631-6.271 19.023-7.975 18.401-9.24a700.1 700.1 0 01-2.435-5.052c-.919-1.925-2.758-5.3-4.086-7.5-1.328-2.2-3.614-6.25-5.081-9-1.467-2.75-2.992-5.225-3.388-5.5-.397-.275-1.552-2.3-2.567-4.5-1.015-2.2-2.189-4.241-2.609-4.535-.42-.294-1.443-2.162-2.274-4.15-.831-1.989-2.086-4.23-2.789-4.981-.703-.75-2.174-3.158-3.268-5.349-1.095-2.192-2.321-4.229-2.724-4.528-.931-.689-5.039-7.911-8.356-14.688-1.407-2.877-2.987-5.495-3.51-5.818-.523-.323-1.636-2.229-2.474-4.234-.838-2.006-1.856-3.888-2.262-4.182-.407-.294-1.583-2.448-2.613-4.785-1.031-2.337-2.219-4.25-2.64-4.25-.421 0-1.539-2.025-2.484-4.5-.945-2.475-2.038-4.5-2.428-4.5-.39 0-3.099-4.725-6.019-10.5s-5.653-10.5-6.072-10.5c-.419 0-1.536-2.025-2.481-4.5-.945-2.475-2.046-4.5-2.447-4.5-.401 0-1.502-2.025-2.447-4.5-.945-2.475-2.032-4.5-2.416-4.5-.383 0-1.57-2.25-2.637-5s-2.236-5-2.597-5c-.361 0-1.658-2.328-2.883-5.174-1.224-2.846-2.854-5.803-3.623-6.572-.768-.768-1.397-2.04-1.397-2.825 0-.786-.45-1.429-1-1.429s-1 .681-1 1.514M13.079 470.583c.048 1.165.285 1.402.604.605.289-.722.253-1.585-.079-1.917-.332-.332-.568.258-.525 1.312m-1 16c.048 1.165.285 1.402.604.605.289-.722.253-1.585-.079-1.917-.332-.332-.568.258-.525 1.312M311 493.164c-1.925.409-8 1.477-13.5 2.373-5.5.896-10.9 2.011-12 2.478-1.1.467-3.35 1.053-5 1.303-1.65.249-4.35.929-6 1.511-6.325 2.229-13.827 4.171-16.115 4.171-1.312 0-2.385.45-2.385 1s-.914 1-2.032 1c-1.922 0-12.14 3.062-16.468 4.934-1.1.476-4.7 1.612-8 2.525-3.3.912-6.781 2.082-7.736 2.6-.955.517-2.386.941-3.179.941-.793 0-2.048.606-2.789 1.347-.74.74-3.022 1.66-5.071 2.045-2.049.384-3.725 1.128-3.725 1.653 0 .525-.624.955-1.386.955-.762 0-2.674.672-4.25 1.494-1.575.821-2.414 1.5-1.864 1.507.55.008 7.75 1.542 16 3.41 35.788 8.103 79.467 15.453 110 18.511 6.05.606 12.961 1.32 15.357 1.586 4.328.48 4.353.465 3.672-2.262-.376-1.51-1.245-3.421-1.929-4.246-.685-.825-1.862-3.525-2.617-6-.754-2.475-2.184-5.573-3.177-6.885-.993-1.312-1.806-2.986-1.806-3.72s-1.35-3.992-3-7.239-3-6.341-3-6.877c0-.535-.9-2.011-2-3.279-1.1-1.268-2-3.103-2-4.076 0-.974-1.112-3.092-2.472-4.708-1.359-1.616-2.9-4.064-3.423-5.44-1.117-2.938-3.286-3.637-8.105-2.612" fill="undefined" fill-rule="evenodd"/></svg>